# xmcd
#
# Track frame offsets: 
#        200
#        26587
#        48612
#        80375
#        102100
#        126137
#        151350
#        174125
#        186075
#
# Disc length: 2805 seconds
#
# Revision: 1
# Processed by: cddbd v1.5.2PL0 Copyright (c) Steve Scherf et al.
# Submitted via: ExactAudioCopyFreeDBPlugin 1.0
#
DISCID=660af309
DTITLE=СВ - Солдат вселенной
DYEAR=1990
DGENRE=Blues
TTITLE0=Дело дрянь
TTITLE1=Делай свое дело
TTITLE2=Первый шаг
TTITLE3=Солдат Вселенной
TTITLE4=Найчи меня жить
TTITLE5=Сон
TTITLE6=Кому ты смотришь в спину
TTITLE7=Когда ты смотришь
TTITLE8=Москва
EXTD=YEAR: 1990
EXTT0=
EXTT1=
EXTT2=
EXTT3=
EXTT4=
EXTT5=
EXTT6=
EXTT7=
EXTT8=
PLAYORDER=
